<?xml version="1.0" encoding="UTF-8" standalone="no"?>
<!-- Created with Inkscape (http://www.inkscape.org/) -->

<svg
   xmlns:dc="http://purl.org/dc/elements/1.1/"
   xmlns:cc="http://creativecommons.org/ns#"
   xmlns:rdf="http://www.w3.org/1999/02/22-rdf-syntax-ns#"
   xmlns:svg="http://www.w3.org/2000/svg"
   xmlns="http://www.w3.org/2000/svg"
   xmlns:xlink="http://www.w3.org/1999/xlink"
   xmlns:sodipodi="http://sodipodi.sourceforge.net/DTD/sodipodi-0.dtd"
   xmlns:inkscape="http://www.inkscape.org/namespaces/inkscape"
   version="1.1"
   inkscape:output_extension="org.inkscape.output.svg.inkscape"
   width="48.000000px"
   height="48.000000px"
   id="svg1337"
   sodipodi:version="0.32"
   inkscape:version="0.91 r13725"
   sodipodi:docname="user-desktop.svg">
  <sodipodi:namedview
     inkscape:window-maximized="0"
     inkscape:showpageshadow="false"
     id="base"
     pagecolor="#ffffff"
     bordercolor="#666666"
     borderopacity="0.77647059"
     inkscape:pageopacity="0.0"
     inkscape:pageshadow="2"
     inkscape:zoom="2.8284271"
     inkscape:cx="27.581854"
     inkscape:cy="13.206685"
     inkscape:current-layer="g3541"
     showgrid="false"
     inkscape:grid-bbox="true"
     inkscape:document-units="px"
     inkscape:window-width="993"
     inkscape:window-height="818"
     inkscape:window-x="697"
     inkscape:window-y="158">
    <inkscape:grid
       empspacing="4"
       empopacity="0.4"
       opacity="0.2"
       empcolor="#0000ff"
       color="#0000ff"
       spacingy="1px"
       spacingx="1px"
       originy="0px"
       originx="0px"
       type="xygrid"
       id="GridFromPre046Settings" />
  </sodipodi:namedview>
  <defs
     id="defs3">
    <inkscape:perspective
       id="perspective59"
       inkscape:persp3d-origin="24 : 16 : 1"
       inkscape:vp_z="48 : 24 : 1"
       inkscape:vp_y="0 : 1000 : 0"
       inkscape:vp_x="0 : 24 : 1"
       sodipodi:type="inkscape:persp3d" />
    <radialGradient
       r="117.14286"
       fy="486.64789"
       fx="605.71429"
       cy="486.64789"
       cx="605.71429"
       gradientTransform="matrix(-2.774389,0,0,1.969706,112.7623,-872.8854)"
       gradientUnits="userSpaceOnUse"
       id="radialGradient6719"
       xlink:href="#linearGradient5060"
       inkscape:collect="always" />
    <linearGradient
       id="linearGradient5060"
       inkscape:collect="always">
      <stop
         id="stop5062"
         offset="0"
         style="stop-color:black;stop-opacity:1;" />
      <stop
         id="stop5064"
         offset="1"
         style="stop-color:black;stop-opacity:0;" />
    </linearGradient>
    <radialGradient
       r="117.14286"
       fy="486.64789"
       fx="605.71429"
       cy="486.64789"
       cx="605.71429"
       gradientTransform="matrix(2.774389,0,0,1.969706,-1891.633,-872.8854)"
       gradientUnits="userSpaceOnUse"
       id="radialGradient6717"
       xlink:href="#linearGradient5060"
       inkscape:collect="always" />
    <linearGradient
       id="linearGradient5048">
      <stop
         id="stop5050"
         offset="0"
         style="stop-color:black;stop-opacity:0;" />
      <stop
         style="stop-color:black;stop-opacity:1;"
         offset="0.5"
         id="stop5056" />
      <stop
         id="stop5052"
         offset="1"
         style="stop-color:black;stop-opacity:0;" />
    </linearGradient>
    <linearGradient
       y2="609.50507"
       x2="302.85715"
       y1="366.64789"
       x1="302.85715"
       gradientTransform="matrix(2.774389,0,0,1.969706,-1892.179,-872.8854)"
       gradientUnits="userSpaceOnUse"
       id="linearGradient6715"
       xlink:href="#linearGradient5048"
       inkscape:collect="always" />
    <linearGradient
       id="linearGradient4542"
       inkscape:collect="always">
      <stop
         id="stop4544"
         offset="0"
         style="stop-color:#000000;stop-opacity:1;" />
      <stop
         id="stop4546"
         offset="1"
         style="stop-color:#000000;stop-opacity:0;" />
    </linearGradient>
    <radialGradient
       gradientUnits="userSpaceOnUse"
       gradientTransform="matrix(1.000000,0.000000,0.000000,0.284916,-7.147040e-16,30.08928)"
       r="15.821514"
       fy="42.07798"
       fx="24.306795"
       cy="42.07798"
       cx="24.306795"
       id="radialGradient4548"
       xlink:href="#linearGradient4542"
       inkscape:collect="always" />
    <linearGradient
       id="linearGradient2736">
      <stop
         id="stop2738"
         offset="0"
         style="stop-color:#5a7aa4;stop-opacity:1;" />
      <stop
         id="stop2740"
         offset="1.0000000"
         style="stop-color:#3b516c;stop-opacity:1.0000000;" />
    </linearGradient>
    <linearGradient
       id="linearGradient6976">
      <stop
         style="stop-color:#c1c3ae;stop-opacity:1.0000000;"
         offset="0.0000000"
         id="stop6978" />
      <stop
         style="stop-color:#818373;stop-opacity:1.0000000;"
         offset="1.0000000"
         id="stop6980" />
    </linearGradient>
    <linearGradient
       inkscape:collect="always"
       xlink:href="#linearGradient6976"
       id="linearGradient6982"
       gradientTransform="matrix(1.444094,0.000000,0.000000,0.692475,-0.875000,-0.750000)"
       x1="5.9931116"
       y1="21.552934"
       x2="27.987149"
       y2="50.644868"
       gradientUnits="userSpaceOnUse" />
    <linearGradient
       y2="37.514895"
       x2="6.5972647"
       y1="35.292295"
       x1="6.5210196"
       gradientTransform="matrix(-1.094203,0.000000,0.000000,0.913907,49.42097,-0.750000)"
       gradientUnits="userSpaceOnUse"
       id="linearGradient2748"
       xlink:href="#linearGradient2736"
       inkscape:collect="always" />
    <linearGradient
       y2="37.514895"
       x2="6.5972647"
       y1="35.292295"
       x1="6.5210196"
       gradientTransform="matrix(-1.094203,0.000000,0.000000,0.913907,49.47622,-0.893632)"
       gradientUnits="userSpaceOnUse"
       id="linearGradient2754"
       xlink:href="#linearGradient2736"
       inkscape:collect="always" />
    <linearGradient
       y2="37.514895"
       x2="6.5972647"
       y1="35.292295"
       x1="6.5210196"
       gradientTransform="matrix(1.094203,0.000000,0.000000,0.913907,-2.051744,-0.893632)"
       gradientUnits="userSpaceOnUse"
       id="linearGradient2760"
       xlink:href="#linearGradient2736"
       inkscape:collect="always" />
    <linearGradient
       y2="37.514895"
       x2="6.5972647"
       y1="35.292295"
       x1="6.5210196"
       gradientTransform="matrix(-1.094203,0.000000,0.000000,0.913907,49.42097,-0.750000)"
       gradientUnits="userSpaceOnUse"
       id="linearGradient2764"
       xlink:href="#linearGradient2736"
       inkscape:collect="always" />
    <linearGradient
       y2="50.644868"
       x2="27.987149"
       y1="21.552934"
       x1="5.9931116"
       gradientTransform="matrix(1.444094,0,0,0.692475,-0.875,-0.75)"
       gradientUnits="userSpaceOnUse"
       id="linearGradient3931"
       xlink:href="#linearGradient6976"
       inkscape:collect="always" />
    <linearGradient
       y2="37.514895"
       x2="6.5972647"
       y1="35.292295"
       x1="6.5210196"
       gradientTransform="matrix(-1.094203,0,0,0.913907,49.42097,-0.75)"
       gradientUnits="userSpaceOnUse"
       id="linearGradient3933"
       xlink:href="#linearGradient2736"
       inkscape:collect="always" />
    <linearGradient
       y2="37.514895"
       x2="6.5972647"
       y1="35.292295"
       x1="6.5210196"
       gradientTransform="matrix(-1.094203,0,0,0.913907,49.42097,-0.75)"
       gradientUnits="userSpaceOnUse"
       id="linearGradient3935"
       xlink:href="#linearGradient2736"
       inkscape:collect="always" />
    <linearGradient
       y2="37.514895"
       x2="6.5972647"
       y1="35.292295"
       x1="6.5210196"
       gradientTransform="matrix(-1.094203,0,0,0.913907,49.47622,-0.893632)"
       gradientUnits="userSpaceOnUse"
       id="linearGradient3937"
       xlink:href="#linearGradient2736"
       inkscape:collect="always" />
    <linearGradient
       y2="37.514895"
       x2="6.5972647"
       y1="35.292295"
       x1="6.5210196"
       gradientTransform="matrix(1.094203,0,0,0.913907,-2.051744,-0.893632)"
       gradientUnits="userSpaceOnUse"
       id="linearGradient3939"
       xlink:href="#linearGradient2736"
       inkscape:collect="always" />
    <linearGradient
       y2="50.644868"
       x2="27.987149"
       y1="21.552934"
       x1="5.9931116"
       gradientTransform="matrix(1.444094,0,0,0.692475,-0.875,-0.75)"
       gradientUnits="userSpaceOnUse"
       id="linearGradient3973"
       xlink:href="#linearGradient6976"
       inkscape:collect="always" />
    <radialGradient
       r="19.5625"
       fy="40.4375"
       fx="23.5625"
       cy="40.4375"
       cx="23.5625"
       gradientTransform="matrix(0.47662503,0,0,0.11853903,8.6362498,19.540963)"
       gradientUnits="userSpaceOnUse"
       id="radialGradient3010"
       xlink:href="#linearGradient5060"
       inkscape:collect="always" />
    <linearGradient
       gradientTransform="translate(-5.9980101,-5.333127)"
       gradientUnits="userSpaceOnUse"
       y2="30.703125"
       x2="25.514589"
       y1="31.046875"
       x1="25.71875"
       id="linearGradient3000"
       xlink:href="#linearGradient2994"
       inkscape:collect="always" />
    <linearGradient
       id="linearGradient2994">
      <stop
         id="stop2996"
         offset="0"
         style="stop-color:#000000;stop-opacity:1;" />
      <stop
         id="stop2998"
         offset="1"
         style="stop-color:#c9c9c9;stop-opacity:1;" />
    </linearGradient>
    <radialGradient
       gradientUnits="userSpaceOnUse"
       gradientTransform="matrix(2.923565,0,0,2.029717,-61.727788,-33.342297)"
       r="3.2408545"
       fy="27.640751"
       fx="29.053354"
       cy="27.640751"
       cx="29.053354"
       id="radialGradient2990"
       xlink:href="#linearGradient2984"
       inkscape:collect="always" />
    <linearGradient
       id="linearGradient2984"
       inkscape:collect="always">
      <stop
         id="stop2986"
         offset="0"
         style="stop-color:#e7e2b8;stop-opacity:1;" />
      <stop
         id="stop2988"
         offset="1"
         style="stop-color:#e7e2b8;stop-opacity:0;" />
    </linearGradient>
    <linearGradient
       gradientTransform="translate(-5.8417601,-5.458127)"
       gradientUnits="userSpaceOnUse"
       y2="22.625"
       x2="47.6875"
       y1="19.8125"
       x1="46"
       id="linearGradient2980"
       xlink:href="#linearGradient2974"
       inkscape:collect="always" />
    <linearGradient
       id="linearGradient2974">
      <stop
         id="stop2976"
         offset="0"
         style="stop-color:#c1c1c1;stop-opacity:1;" />
      <stop
         id="stop2978"
         offset="1"
         style="stop-color:#acacac;stop-opacity:1;" />
    </linearGradient>
    <linearGradient
       gradientTransform="translate(-5.8417601,-5.458127)"
       gradientUnits="userSpaceOnUse"
       y2="22.250591"
       x2="50.988335"
       y1="17.376184"
       x1="48.90625"
       id="linearGradient2972"
       xlink:href="#linearGradient2966"
       inkscape:collect="always" />
    <linearGradient
       id="linearGradient2966">
      <stop
         id="stop2968"
         offset="0"
         style="stop-color:#ffd1d1;stop-opacity:1;" />
      <stop
         style="stop-color:#ff1d1d;stop-opacity:1;"
         offset="0.5"
         id="stop3006" />
      <stop
         id="stop2970"
         offset="1"
         style="stop-color:#6f0000;stop-opacity:1;" />
    </linearGradient>
  </defs>
  <metadata
     id="metadata4">
    <rdf:RDF>
      <cc:Work
         rdf:about="">
        <dc:format>image/svg+xml</dc:format>
        <dc:type
           rdf:resource="http://purl.org/dc/dcmitype/StillImage" />
        <dc:title>Desktop</dc:title>
        <dc:creator>
          <cc:Agent>
            <dc:title>Jakub Steiner</dc:title>
          </cc:Agent>
        </dc:creator>
        <dc:source>http://jimmac.musichall.cz</dc:source>
        <dc:description>Desktop location.</dc:description>
        <dc:subject>
          <rdf:Bag>
            <rdf:li>desktop</rdf:li>
            <rdf:li>storage</rdf:li>
            <rdf:li>files</rdf:li>
            <rdf:li>default location</rdf:li>
          </rdf:Bag>
        </dc:subject>
        <cc:license
           rdf:resource="http://creativecommons.org/licenses/publicdomain/" />
        <dc:contributor>
          <cc:Agent>
            <dc:title>Garrett LeSage</dc:title>
          </cc:Agent>
        </dc:contributor>
      </cc:Work>
      <cc:License
         rdf:about="http://creativecommons.org/licenses/publicdomain/">
        <cc:permits
           rdf:resource="http://creativecommons.org/ns#Reproduction" />
        <cc:permits
           rdf:resource="http://creativecommons.org/ns#Distribution" />
        <cc:permits
           rdf:resource="http://creativecommons.org/ns#DerivativeWorks" />
      </cc:License>
    </rdf:RDF>
  </metadata>
  <g
     id="layer1"
     inkscape:label="Layer 1"
     inkscape:groupmode="layer">
    <g
       id="g6707"
       transform="matrix(0.02364027,0,0,0.02086758,45.02649,36.76443)"
       style="display:inline">
      <rect
         y="-150.69685"
         x="-1559.2523"
         height="478.35718"
         width="1339.6335"
         id="rect6709"
         style="color:#000000;display:inline;overflow:visible;visibility:visible;opacity:0.40206185;fill:url(#linearGradient6715);fill-opacity:1;fill-rule:nonzero;stroke:none;stroke-width:1;stroke-linecap:round;stroke-linejoin:miter;stroke-miterlimit:4;stroke-dasharray:none;stroke-dashoffset:0;stroke-opacity:1;marker:none;marker-start:none;marker-mid:none;marker-end:none" />
      <path
         inkscape:connector-curvature="0"
         sodipodi:nodetypes="cccc"
         id="path6711"
         d="m -219.61876,-150.68038 c 0,0 0,478.33079 0,478.33079 142.874166,0.90045 345.40022,-107.16966 345.40014,-239.196175 0,-132.026537 -159.436816,-239.134595 -345.40014,-239.134615 z"
         style="color:#000000;display:inline;overflow:visible;visibility:visible;opacity:0.40206185;fill:url(#radialGradient6717);fill-opacity:1;fill-rule:nonzero;stroke:none;stroke-width:1;stroke-linecap:round;stroke-linejoin:miter;stroke-miterlimit:4;stroke-dasharray:none;stroke-dashoffset:0;stroke-opacity:1;marker:none;marker-start:none;marker-mid:none;marker-end:none" />
      <path
         inkscape:connector-curvature="0"
         style="color:#000000;display:inline;overflow:visible;visibility:visible;opacity:0.40206185;fill:url(#radialGradient6719);fill-opacity:1;fill-rule:nonzero;stroke:none;stroke-width:1;stroke-linecap:round;stroke-linejoin:miter;stroke-miterlimit:4;stroke-dasharray:none;stroke-dashoffset:0;stroke-opacity:1;marker:none;marker-start:none;marker-mid:none;marker-end:none"
         d="m -1559.2523,-150.68038 c 0,0 0,478.33079 0,478.33079 -142.8742,0.90045 -345.4002,-107.16966 -345.4002,-239.196175 0,-132.026537 159.4368,-239.134595 345.4002,-239.134615 z"
         id="path6713"
         sodipodi:nodetypes="cccc" />
    </g>
    <g
       inkscape:r_cy="true"
       inkscape:r_cx="true"
       transform="matrix(1.00103,0,0,0.997645,-0.00342167,6.205326)"
       id="g3968">
      <path
         inkscape:connector-curvature="0"
         inkscape:r_cy="true"
         inkscape:r_cx="true"
         sodipodi:nodetypes="cssssssss"
         id="path6215"
         d="M 9.57758,15.426169 3.5668796,32.458193 c -0.169748,0.481001 0.2165253,1.01027 0.6858438,1.009795 l 39.3821156,-0.03982 c 0.687951,-6.96e-4 1.175326,-0.770533 0.897052,-1.451205 L 37.832213,15.58921 c -0.190039,-0.464845 -0.829669,-0.865372 -1.447079,-0.865957 l -25.552933,-0.02419 c -0.483363,-4.58e-4 -1.035628,0.106566 -1.254621,0.727108 z"
         style="fill:url(#linearGradient3973);fill-opacity:1;fill-rule:evenodd;stroke:#404040;stroke-width:1.00729263;stroke-linecap:round;stroke-linejoin:round;stroke-miterlimit:4;stroke-opacity:1"
         transform="matrix(0.97258,0,0,1.014707,0.392838,-0.586934)" />
      <path
         inkscape:connector-curvature="0"
         inkscape:r_cy="true"
         inkscape:r_cx="true"
         id="path6984"
         d="m 4.125,32.875 5.9375,-17.3125 0.875,-0.375 25.5,0.0625 0.875,0.8125 -26,0 -0.375,0.1875 -5.3125,15.5 -1.5,1.125 z"
         style="fill:#ffffff;fill-opacity:0.40935669;fill-rule:evenodd;stroke:none;stroke-width:1px;stroke-linecap:butt;stroke-linejoin:miter;stroke-opacity:1"
         sodipodi:nodetypes="ccccccccc"
         transform="matrix(0.97258,0,0,1.014707,0.392838,-0.586934)" />
      <path
         inkscape:connector-curvature="0"
         inkscape:r_cy="true"
         inkscape:r_cx="true"
         style="fill:#000000;fill-opacity:0.12865499;fill-rule:evenodd;stroke:none;stroke-width:1px;stroke-linecap:butt;stroke-linejoin:miter;stroke-opacity:1"
         d="m 4.375,33.25 39.25,0.0625 0.5625,-0.6875 -6.8125,-16.9375 6.125,16.125 -38.125,0.125 -1,1.3125 z"
         id="path2344"
         sodipodi:nodetypes="ccccccc"
         transform="matrix(0.97258,0,0,1.014707,0.392838,-0.586934)" />
    </g>
    <g
       transform="translate(0,6)"
       id="g3952">
      <path
         inkscape:connector-curvature="0"
         inkscape:r_cy="true"
         inkscape:r_cx="true"
         style="color:#000000;display:inline;overflow:visible;visibility:visible;fill:url(#linearGradient3933);fill-opacity:1;fill-rule:evenodd;stroke:#272840;stroke-width:1.00662374;stroke-linecap:round;stroke-linejoin:round;stroke-miterlimit:4;stroke-dashoffset:0;stroke-opacity:1;marker:none;marker-start:none;marker-mid:none;marker-end:none"
         d="M 4.046875,28.34375 C 4.1409134,28.128279 4.3632709,27.972762 4.6875,27.976562 l 2,0.02344 3.1875,3.78125 c 0,0 -0.52501,1.295042 -0.303305,2.122456 0.45608,0.405539 -0.0092,0.674419 -0.0092,0.674419 0,0 -6,0 -6.5,0 -0.5,0 -1.1236997,-1.265085 -0.8125,-2.015625 0.796875,-1.921875 0.9259179,-2.223121 1.796875,-4.21875 z"
         id="path2726"
         sodipodi:nodetypes="csccccsss"
         transform="matrix(0.97258,0,0,1.014707,0.392838,-0.586934)" />
      <path
         inkscape:connector-curvature="0"
         inkscape:r_cy="true"
         inkscape:r_cx="true"
         style="fill:#ffffff;fill-opacity:0.48538011;fill-rule:evenodd;stroke:none;stroke-width:1px;stroke-linecap:butt;stroke-linejoin:miter;stroke-opacity:1"
         d="M 4.53125,28.53125 2.703125,32.75 l 6.21875,0 L 3.515625,32.21875 5,28.859375 6.453125,28.515625 4.53125,28.53125 Z"
         id="path2744"
         sodipodi:nodetypes="ccccccc"
         transform="matrix(0.97258,0,0,1.014707,0.392838,-0.586934)" />
    </g>
    <g
       transform="translate(0,6)"
       id="g3956">
      <path
         inkscape:connector-curvature="0"
         inkscape:r_cy="true"
         inkscape:r_cx="true"
         style="color:#000000;display:inline;overflow:visible;visibility:visible;fill:url(#linearGradient3935);fill-opacity:1;fill-rule:evenodd;stroke:#272840;stroke-width:1.00662374;stroke-linecap:round;stroke-linejoin:round;stroke-miterlimit:4;stroke-dashoffset:0;stroke-opacity:1;marker:none;marker-start:none;marker-mid:none;marker-end:none"
         d="m 44.499083,28.34375 c -0.09404,-0.215471 -0.316396,-0.370988 -0.640625,-0.367188 l -2,0.02344 -3.1875,3.78125 c 0,0 0.52501,1.295042 0.303305,2.122456 -0.45608,0.405539 0.0092,0.674419 0.0092,0.674419 0,0 6,0 6.5,0 0.5,0 1.1237,-1.265085 0.8125,-2.015625 -0.796875,-1.921875 -0.925918,-2.223121 -1.796875,-4.21875 z"
         id="path2746"
         sodipodi:nodetypes="csccccsss"
         transform="matrix(0.97258,0,0,1.014707,0.392838,-0.586934)" />
      <path
         inkscape:connector-curvature="0"
         inkscape:r_cy="true"
         inkscape:r_cx="true"
         style="color:#000000;display:inline;overflow:visible;visibility:visible;fill:#ffffff;fill-opacity:0.48538011;fill-rule:evenodd;stroke:none;stroke-width:1px;stroke-linecap:butt;stroke-linejoin:miter;stroke-miterlimit:4;stroke-dashoffset:0;stroke-opacity:1;marker:none;marker-start:none;marker-mid:none;marker-end:none"
         d="m 43.937892,28.489573 -1.834058,0 -2.872621,3.380854 c 0,0 0.243068,0.817593 0.287262,1.259534 0.04419,0.441942 -0.110485,0.994369 -0.110485,0.994369 0,0 0.662912,-0.90598 0.574524,-1.392116 C 39.894125,32.246078 39.78364,31.84833 39.78364,31.84833 l 2.541165,-3.093592 1.613087,-0.265165 z"
         id="path2750"
         transform="matrix(0.97258,0,0,1.014707,0.392838,-0.586934)" />
    </g>
    <g
       transform="translate(0,6)"
       id="g3964">
      <path
         inkscape:connector-curvature="0"
         inkscape:r_cy="true"
         inkscape:r_cx="true"
         style="color:#000000;display:inline;overflow:visible;visibility:visible;fill:url(#linearGradient3937);fill-opacity:1;fill-rule:evenodd;stroke:#272840;stroke-width:0.80529904;stroke-linecap:round;stroke-linejoin:round;stroke-miterlimit:4;stroke-dashoffset:0;stroke-opacity:1;marker:none;marker-start:none;marker-mid:none;marker-end:none"
         d="m 8.8919123,17.407878 5.4248377,-2.65165 c 0.360029,-0.175982 -0.30637,-0.972272 -0.707107,-0.972272 l -4.331029,0 -1.2374396,3.18198 c -0.1761173,0.452873 0.3311272,1.870872 0.4971845,1.414214 l 0.3535534,-0.972272 z"
         id="path2752"
         sodipodi:nodetypes="csscssc"
         transform="matrix(0.97258,0,0,1.014707,0.392838,-0.586934)" />
      <path
         inkscape:connector-curvature="0"
         inkscape:r_cy="true"
         inkscape:r_cx="true"
         style="color:#000000;display:inline;overflow:visible;visibility:visible;fill:#ffffff;fill-opacity:0.48538011;fill-rule:evenodd;stroke:none;stroke-width:1px;stroke-linecap:butt;stroke-linejoin:miter;stroke-miterlimit:4;stroke-dashoffset:0;stroke-opacity:1;marker:none;marker-start:none;marker-mid:none;marker-end:none"
         d="M 8.5052134,17.89402 C 8.3737613,17.618724 8.3189303,17.31835 8.4941649,16.877554 l 1.0717091,-2.695845 4.010621,0.01105 -3.579727,0.430893 -1.3037293,2.298097 C 8.371541,17.488455 8.4558528,17.547475 8.5052134,17.89402 Z"
         id="path2756"
         sodipodi:nodetypes="cscccsc"
         transform="matrix(0.97258,0,0,1.014707,0.392838,-0.586934)" />
    </g>
    <g
       transform="translate(0,6)"
       id="g3960">
      <path
         inkscape:connector-curvature="0"
         inkscape:r_cy="true"
         inkscape:r_cx="true"
         style="color:#000000;display:inline;overflow:visible;visibility:visible;fill:url(#linearGradient3939);fill-opacity:1;fill-rule:evenodd;stroke:#272840;stroke-width:0.80529904;stroke-linecap:round;stroke-linejoin:round;stroke-miterlimit:4;stroke-dashoffset:0;stroke-opacity:1;marker:none;marker-start:none;marker-mid:none;marker-end:none"
         d="m 38.532564,17.407878 -5.424838,-2.65165 c -0.360029,-0.175982 0.30637,-0.972272 0.707107,-0.972272 l 4.331029,0 1.23744,3.18198 c 0.176117,0.452873 -0.331128,1.870872 -0.497185,1.414214 l -0.353553,-0.972272 z"
         id="path2758"
         sodipodi:nodetypes="csscssc"
         transform="matrix(0.97258,0,0,1.014707,0.392838,-0.586934)" />
      <path
         inkscape:connector-curvature="0"
         inkscape:r_cy="true"
         inkscape:r_cx="true"
         style="color:#000000;display:inline;overflow:visible;visibility:visible;fill:#ffffff;fill-opacity:0.48538011;fill-rule:evenodd;stroke:none;stroke-width:1px;stroke-linecap:butt;stroke-linejoin:miter;stroke-miterlimit:4;stroke-dashoffset:0;stroke-opacity:1;marker:none;marker-start:none;marker-mid:none;marker-end:none"
         d="m 37.875,14.203125 c 0,0 -3.78125,-0.04687 -4.015625,-0.03125 C 33.625,14.1875 33.46875,14.46875 33.46875,14.46875 c 0,0 5.125,2.5 5.25,2.578125 0.125,0.07813 0.25,0.359375 0.25,0.359375 0,0 0.04687,-0.40625 -0.1875,-0.59375 -0.234375,-0.1875 -4.012817,-2.173765 -4.6875,-2.421875 2.107456,-0.177171 2.442708,-0.130208 3.78125,-0.1875 z"
         id="path2762"
         sodipodi:nodetypes="cscccccs"
         transform="matrix(0.97258,0,0,1.014707,0.392838,-0.586934)" />
    </g>
    <ellipse
       style="color:#000000;display:inline;overflow:visible;visibility:visible;opacity:0.31578944;fill:url(#radialGradient3010);fill-opacity:1;fill-rule:evenodd;stroke:none;stroke-width:1;stroke-linecap:butt;stroke-linejoin:miter;stroke-miterlimit:4;stroke-dasharray:none;stroke-dashoffset:0;stroke-opacity:1;marker:none;marker-start:none;marker-mid:none;marker-end:none"
       id="path3008"
       cx="19.866726"
       cy="24.334385"
       rx="9.3239765"
       ry="2.3189182" />
    <g
       id="g3541"
       transform="translate(0,2)">
      <path
         style="fill:#000000;fill-opacity:1;fill-rule:nonzero;stroke:none;stroke-width:1px;stroke-linecap:butt;stroke-linejoin:miter;stroke-opacity:1"
         d="m 14.728805,20.993491 c 0.752991,0.143474 1.513797,0.288963 2.29226,0.407202 0.332226,0.104707 0.851316,-0.09466 1.049179,0.220165 0.03408,0.384497 -0.252808,0.767645 -0.310123,1.174731 -0.223532,0.778576 -0.525608,1.579977 -0.839048,2.413684 -0.543334,1.159868 -1.208329,2.355069 -1.736146,3.701241 -0.290718,0.758798 -0.703541,1.576082 -1.388427,2.061576 -0.672399,0.566887 -1.49187,1.309171 -2.253667,1.132339 -0.864658,-0.345452 -1.342139,-1.238428 -1.6967827,-2.096683 -0.039938,-0.190897 0.3330617,-0.250772 0.4788827,-0.381116 0.468198,-0.268667 0.930786,-0.534113 1.387864,-0.796398 0.269307,0.811422 0.745884,1.598181 1.549136,1.865278 0.248584,0.08461 0.63839,-0.179169 0.167763,0.108488 -0.639055,0.394408 -1.288679,0.797925 -1.950693,1.204503 0.447158,-0.283657 0.922422,-0.538871 1.240587,-1.040414 0.551154,-0.768781 0.82697,-1.654951 1.243843,-2.422962 0.534175,-1.096829 1.131651,-2.105532 1.553326,-3.116297 0.319862,-0.821552 0.666728,-1.603628 0.857004,-2.378244 0.131063,-0.341556 0.464782,-0.883746 -0.144105,-0.757189 -1.015058,-0.09915 -1.96116,-0.35848 -2.947421,-0.47715 0.489566,-0.278446 0.971706,-0.552674 1.446568,-0.822754 0,0 0,0 0,0"
         id="path3523"
         inkscape:connector-curvature="0" />
      <path
         style="fill:#000000;fill-opacity:1;fill-rule:nonzero;stroke:none;stroke-width:1px;stroke-linecap:butt;stroke-linejoin:miter;stroke-opacity:1"
         d="m 15.153425,24.658697 c 0.933988,0.142243 1.890538,0.228099 2.850647,0.32835 -0.486584,0.333814 -0.98146,0.673316 -1.48484,1.018653 -0.931738,-0.126508 -1.862447,-0.234608 -2.796308,-0.303342 -0.319894,0.04238 0.141279,-0.16625 0.245205,-0.259994 0.400337,-0.264684 0.795408,-0.525894 1.185296,-0.783667 0,0 0,0 0,0"
         id="path3525"
         inkscape:connector-curvature="0" />
      <path
         style="fill:#000000;fill-opacity:1;fill-rule:nonzero;stroke:none;stroke-width:1px;stroke-linecap:butt;stroke-linejoin:miter;stroke-opacity:1"
         d="m 23.244246,22.193816 c -0.119084,1.328618 -0.494268,2.716585 -0.786291,4.233413 -0.282843,1.213543 -0.787424,2.419491 -1.3193,3.692906 -0.232385,0.587746 -0.485115,1.209805 -0.742228,1.806538 -0.604377,0.337888 -1.21742,0.68062 -1.839316,1.028303 0.318189,-0.802208 0.722095,-1.52225 1.01402,-2.277183 0.53667,-1.139466 0.968364,-2.262938 1.295067,-3.360145 0.272205,-0.958637 0.516322,-1.879357 0.720835,-2.76385 0.112339,-0.563005 0.250155,-1.110802 0.246208,-1.653718 0.476205,-0.238359 0.946504,-0.473763 1.411005,-0.706264 0,0 0,0 0,0"
         id="path3527"
         inkscape:connector-curvature="0" />
      <path
         style="fill:#000000;fill-opacity:1;fill-rule:nonzero;stroke:none;stroke-width:1px;stroke-linecap:butt;stroke-linejoin:miter;stroke-opacity:1"
         d="m 20.39416,21.534157 c 1.108993,0.03709 2.22671,-0.03875 3.340701,0.104728 0.898333,0.08915 1.808041,0.127795 2.703891,0.07617 -0.378364,0.290924 -0.762865,0.586566 -1.153652,0.887042 -1.181201,0.0109 -2.358503,-0.09718 -3.524968,-0.191207 -0.897004,-0.0261 -1.795395,-0.01159 -2.691991,0.0083 0.449171,-0.299771 0.891241,-0.594943 1.32602,-0.885022 0,0 -1e-6,2.4e-5 -1e-6,2.4e-5"
         id="path3529"
         inkscape:connector-curvature="0" />
      <path
         style="fill:#000000;fill-opacity:1;fill-rule:nonzero;stroke:none;stroke-width:1px;stroke-linecap:butt;stroke-linejoin:miter;stroke-opacity:1"
         d="m 31.269106,22.011399 c 0.618263,0.963842 0.968655,2.100454 0.992255,3.219152 0.07219,0.676972 0.193326,1.390422 0.09261,2.072039 -0.08708,0.958586 -0.07914,1.998681 -0.137455,3.067756 -0.519879,0.326072 -1.047195,0.65681 -1.582108,0.992311 0.142285,-1.240309 0.209347,-2.439655 0.335692,-3.551224 0.09576,-0.833006 -0.06036,-1.695766 -0.07023,-2.487805 -0.09129,-0.786261 -0.295029,-1.573207 -0.674574,-2.272949 -0.313111,-0.272818 0.006,-0.342432 0.168669,-0.465583 0.294719,-0.193201 0.586415,-0.384429 0.875144,-0.573697 0,0 0,0 0,0"
         id="path3531"
         inkscape:connector-curvature="0" />
      <path
         style="fill:#000000;fill-opacity:1;fill-rule:nonzero;stroke:none;stroke-width:1px;stroke-linecap:butt;stroke-linejoin:miter;stroke-opacity:1"
         d="m 28.027927,22.02108 c 1.31616,0.0473 2.508484,-0.319882 3.815119,-0.299743 0.839571,-0.0035 1.70152,-0.07143 2.604993,0.245321 0.533833,0.228416 0.730505,0.845287 0.695952,1.256575 -0.121943,1.060438 -0.571732,2.085351 -1.502631,2.675531 -0.304733,0.228086 -0.9693,0.618593 -1.090456,0.697062 0.51979,-0.394612 1.045802,-0.764758 1.514425,-1.180281 -0.332466,0.206721 -0.717426,0.578811 -0.354763,1.135168 0.340101,0.574273 1.003937,1.199628 0.883113,1.855462 -0.242172,0.668514 -0.847338,1.045493 -1.376324,1.465444 -0.481225,0.37053 -0.999511,0.696628 -1.593996,0.907422 -1.106624,0.474497 -2.379142,0.637091 -3.666706,0.478361 -1.088584,-0.286286 -2.127408,-0.790978 -3.160284,-1.163054 -0.486503,-0.128154 -0.08386,-0.320369 0.110744,-0.479828 0.376833,-0.295823 0.74867,-0.587723 1.115612,-0.87578 0.493529,0.236171 1.011689,0.399175 1.52234,0.624069 0.900456,0.380443 1.853588,0.703174 2.766865,0.601887 1.197236,1.59e-4 2.288498,-0.36288 3.234909,-0.889124 -0.263525,0.29074 -0.843599,0.692881 -0.998165,0.848934 0.4178,-0.290088 0.889782,-0.835832 0.408406,-1.52757 -0.391214,-0.601267 -0.948786,-1.287505 -0.761676,-1.89299 0.289079,-0.770454 1.212306,-0.851343 1.766879,-1.296844 0.100626,-0.05386 -0.354261,0.264245 -0.479679,0.360259 -0.189878,0.138153 -0.547438,0.403398 -0.641954,0.471859 0.641247,-0.55235 0.939386,-1.395067 1.058156,-2.227854 0.03791,-0.34272 -0.11349,-0.903601 -0.589859,-1.022295 -1.019477,-0.28053 -1.979988,-0.175375 -2.940388,-0.175271 -1.177763,0.05903 -2.301717,0.337418 -3.504628,0.324453 0.39444,-0.310794 0.78241,-0.616533 1.163996,-0.917173 0,0 0,0 0,0"
         id="path3533"
         inkscape:connector-curvature="0" />
    </g>
    <g
       transform="translate(-3.1040155,-3.9165153)"
       id="g3498">
      <path
         inkscape:connector-curvature="0"
         style="color:#000000;display:inline;overflow:visible;visibility:visible;opacity:1;fill:#cb9022;fill-opacity:1;fill-rule:evenodd;stroke:#5c410c;stroke-width:1;stroke-linecap:butt;stroke-linejoin:miter;stroke-miterlimit:4;stroke-dasharray:none;stroke-dashoffset:0;stroke-opacity:1;marker:none;marker-start:none;marker-mid:none;marker-end:none"
         d="m 17.168692,27.041873 5.625,-5.625 20.093749,-9.749999 c 3.25,-1.25 5.1875,3.375 2.3125,5 l -20.031249,9.374999 -8,1 z"
         id="path2960"
         sodipodi:nodetypes="cccccc" />
      <path
         inkscape:connector-curvature="0"
         sodipodi:nodetypes="czcczcc"
         id="path2964"
         d="m 38.15824,14.541874 c 0,0 1.4375,0.09375 2,1.34375 0.579493,1.287761 0,2.65625 0,2.65625 l 5.03125,-2.46875 c 0,0 1.452032,-0.881367 0.65625,-2.84375 -0.784912,-1.935577 -2.6875,-1.15625 -2.6875,-1.15625 l -5,2.46875 z"
         style="color:#000000;display:inline;overflow:visible;visibility:visible;opacity:1;fill:url(#linearGradient2972);fill-opacity:1;fill-rule:evenodd;stroke:none;stroke-width:1;stroke-linecap:butt;stroke-linejoin:miter;stroke-miterlimit:4;stroke-dasharray:none;stroke-dashoffset:0;stroke-opacity:1;marker:none;marker-start:none;marker-mid:none;marker-end:none" />
      <path
         inkscape:connector-curvature="0"
         style="color:#000000;display:inline;overflow:visible;visibility:visible;opacity:1;fill:url(#linearGradient2980);fill-opacity:1;fill-rule:evenodd;stroke:none;stroke-width:1;stroke-linecap:butt;stroke-linejoin:miter;stroke-miterlimit:4;stroke-dasharray:none;stroke-dashoffset:0;stroke-opacity:1;marker:none;marker-start:none;marker-mid:none;marker-end:none"
         d="m 38.15824,14.541874 c 0,0 1.4375,0.09375 2,1.34375 0.579493,1.287761 0,2.65625 0,2.65625 l 2,-1 c 0,0 0.827032,-1.318867 0.21875,-2.6875 -0.625,-1.40625 -2.21875,-1.3125 -2.21875,-1.3125 l -2,1 z"
         id="path2962"
         sodipodi:nodetypes="czcczcc" />
      <path
         inkscape:connector-curvature="0"
         style="color:#000000;display:inline;overflow:visible;visibility:visible;opacity:1;fill:url(#radialGradient2990);fill-opacity:1;fill-rule:evenodd;stroke:none;stroke-width:1;stroke-linecap:butt;stroke-linejoin:miter;stroke-miterlimit:4;stroke-dasharray:none;stroke-dashoffset:0;stroke-opacity:1;marker:none;marker-start:none;marker-mid:none;marker-end:none"
         d="m 18.59574,26.323123 4.5,-4.5 c 1.5,0.8125 2.28125,2.15625 1.875,3.71875 l -6.375,0.78125 z"
         id="path2982"
         sodipodi:nodetypes="cccc" />
      <path
         inkscape:connector-curvature="0"
         style="color:#000000;display:inline;overflow:visible;visibility:visible;opacity:1;fill:url(#linearGradient3000);fill-opacity:1;fill-rule:evenodd;stroke:none;stroke-width:1;stroke-linecap:butt;stroke-linejoin:miter;stroke-miterlimit:4;stroke-dasharray:none;stroke-dashoffset:0;stroke-opacity:1;marker:none;marker-start:none;marker-mid:none;marker-end:none"
         d="m 19.93949,24.916873 -1.625,1.59375 2.34375,-0.3125 c 0.21875,-0.71875 -0.1875,-1.0625 -0.71875,-1.28125 z"
         id="path2992"
         sodipodi:nodetypes="cccc" />
      <path
         inkscape:connector-curvature="0"
         style="color:#000000;display:inline;overflow:visible;visibility:visible;opacity:1;fill:#ffffff;fill-opacity:0.36363639;fill-rule:evenodd;stroke:none;stroke-width:1;stroke-linecap:butt;stroke-linejoin:miter;stroke-miterlimit:4;stroke-dasharray:none;stroke-dashoffset:0;stroke-opacity:1;marker:none;marker-start:none;marker-mid:none;marker-end:none"
         d="m 23.09574,21.791873 1.5625,1.25 15.38734,-7.318669 C 39.601148,14.86716 38.803813,14.638607 38.142201,14.560942 L 23.09574,21.791873 Z"
         id="path3002"
         sodipodi:nodetypes="ccccc" />
      <path
         inkscape:connector-curvature="0"
         style="color:#000000;display:inline;overflow:visible;visibility:visible;opacity:1;fill:#000000;fill-opacity:0.36363639;fill-rule:evenodd;stroke:none;stroke-width:1;stroke-linecap:butt;stroke-linejoin:miter;stroke-miterlimit:4;stroke-dasharray:none;stroke-dashoffset:0;stroke-opacity:1;marker:none;marker-start:none;marker-mid:none;marker-end:none"
         d="m 24.97074,25.604373 0.1875,-0.75 15.23109,-7.129599 c 0,0 -0.11016,0.613627 -0.215879,0.74935 L 24.97074,25.604373 Z"
         id="path3004"
         sodipodi:nodetypes="ccccc" />
    </g>
  </g>
  <g
     inkscape:label="palette"
     id="layer2"
     inkscape:groupmode="layer" />
</svg>
